<svg version="1.1" id="Layer_1" xmlns="http://www.w3.org/2000/svg" xmlns:xlink="http://www.w3.org/1999/xlink" x="0px" y="0px"
	 width="557px" height="140px" viewBox="0 0 557 140" style="enable-background:new 0 0 557 140;" xml:space="preserve">
<style type="text/css">
	.st0{fill:#E73630;}
	.st1{fill:#FFFFFF;}
</style>
<path class="st0" d="M0.1,55.9c0-4.6,2.5-8.1,7-9.9c2.1-0.8,4.4-1,6.6-1.3c11.5-1.3,20.8-6.1,26.6-16.5c2.8-5,4.2-10.5,4.7-16.2
	c0.2-2.4,0.8-4.8,2-6.9c4-6.7,13.7-6.8,17.8-0.2c1.4,2.2,2,4.7,2.2,7.3c0.5,5.8,1.9,11.3,4.8,16.4c5.1,8.7,12.9,13.5,22.6,15.5
	c2.9,0.6,6,0.6,8.9,1.3c5.1,1.2,8.6,5.3,8.8,10.2c0.2,5.2-3.5,9.8-9,11c-2.9,0.6-5.9,0.7-8.8,1.3c-8.3,1.8-15.4,5.5-20.6,12.5
	c-3.6,4.9-5.4,10.4-6.3,16.3c-0.4,2.6-0.4,5.2-1.3,7.7c-2.1,6-7.9,8.9-13.8,6.9c-3.5-1.3-5.4-4-6.6-7.4c-0.9-2.6-0.9-5.3-1.3-7.9
	C42.5,81,32.1,70.3,17.3,67.6c-2.8-0.5-5.7-0.5-8.5-1.3c-3.9-1.1-7-3.2-8.3-7.3C0.2,58,0.1,57,0.1,55.9z"/>
<path class="st1" d="M260.6,139c0-0.5,0-0.9,0-1.2c0-31.2,0-62.3,0-93.5c0-1.1,0.3-1.3,1.3-1.3c5.8,0.1,11.6,0,17.4,0
	c0.8,0,1.1,0.2,1,1c-0.1,1.1,0,2.3,0,3.4c0.2,0,0.3,0,0.3,0c2.7-3.5,6.4-5.3,10.7-5.8c8.2-0.8,15.7,1.1,21.8,7
	c4.1,3.9,6.6,8.7,8,14.2c2.7,10.9,2.8,21.8-1.2,32.4c-2.9,7.6-7.9,13.4-15.6,16.6c-5.1,2.1-10.4,2.6-15.8,1.2
	c-3.2-0.8-5.8-2.6-8-5.1c-0.3,0.4-0.2,0.8-0.2,1.1c0,6.7,0,13.5,0,20.2c0,0.7-0.2,1.1-0.9,1.4c-5.9,2.6-11.8,5.3-17.8,7.9
	C261.2,138.7,261,138.9,260.6,139z M280.2,77.5c0,3.9,0.1,7.7,0,11.6c0,1.4,0.5,2.3,1.5,3.1c1.6,1.3,3.5,2,5.5,2.4
	c7.2,1.4,12.6-1.6,14.7-8.5c1.8-5.9,1.6-11.8-0.2-17.7c-0.9-3.1-2.7-5.5-5.8-6.9c-4.7-2.1-11.4-0.9-15.1,2.5
	c-0.5,0.4-0.7,0.9-0.7,1.5C280.2,69.5,280.2,73.5,280.2,77.5z"/>
<path class="st1" d="M171.5,84.4c-7,0-14.1,0-21.1,0c-0.8,0-1,0.2-0.9,1c0.4,6.5,4.9,11.1,11.5,11.7c6.9,0.6,12.7-1.5,17.3-6.7
	c0.4-0.4,0.6-0.5,1-0.1c3.5,3.5,7,7,10.5,10.4c0.4,0.4,0.3,0.6,0,0.9c-5.4,6.2-12,10.3-20.2,11.6c-6.3,1-12.6,0.7-18.6-1.3
	c-8.4-2.9-14.4-8.5-17.5-16.7c-4.4-11.4-4.6-23.1-0.1-34.6c4.5-11.3,13.2-17.6,25.3-18.9c6-0.6,11.9-0.2,17.6,2.1
	c9.7,3.9,15.4,11.2,17.3,21.5c1.1,6,0.9,12.1,0.4,18.1c-0.1,0.7-0.3,1-1.1,1C185.7,84.3,178.6,84.4,171.5,84.4z M162.4,69.6
	c0.1,0,0.3,0,0.4,0c3.9,0,7.9,0,11.8,0c0.3,0,0.9,0.4,0.8-0.4c-0.7-4.3-2.6-8.7-8.1-10.4c-1.6-0.5-3.1-0.6-4.8-0.7
	c-6.8-0.1-11.8,4.1-12.8,10.7c-0.1,0.8,0.1,0.8,0.7,0.8C154.4,69.6,158.4,69.6,162.4,69.6z"/>
<path class="st1" d="M393.5,77.8c-0.1,6.1-0.7,12-3.1,17.7c-4.6,10.7-12.7,16.9-24.3,18.1c-6,0.6-11.9,0.2-17.5-2
	c-8.1-3.3-13.6-9.2-16.4-17.3c-4-11.7-4.1-23.6,0.9-35.1c4.5-10.4,12.8-16.2,24.1-17.4c6.6-0.7,13.1-0.1,19.1,2.9
	c8.2,4.2,13,11.1,15.5,19.7C393.1,68.8,393.5,73.2,393.5,77.8z M373.8,78.7c0-4.9-0.5-8.3-1.7-11c-1.2-2.9-3.1-5.3-6.1-6.5
	c-5.7-2.3-11.7,0.1-14.6,5.8c-1.3,2.5-1.9,5.3-2.1,8.1c-0.3,4.5-0.1,9,2,13.1c2.2,4.5,5.9,6.8,10.9,6.6c4.9-0.2,8.1-2.9,9.9-7.3
	C373.5,84.4,373.8,81.1,373.8,78.7z"/>
<path class="st1" d="M554.8,53c-4.1,3.3-8.1,6.6-12.1,9.9c-0.5,0.4-0.8,0.3-1.2-0.1c-2.7-2.3-5.7-4.2-9.3-4.9
	c-2.6-0.5-5.2-0.5-7.8,0.1c-0.7,0.2-1.4,0.4-2.1,0.9c-2,1.3-2.3,3.7-0.6,5.4c1.2,1.3,2.8,2,4.4,2.7c3.2,1.4,6.7,2.1,10,3.2
	c4.6,1.6,9,3.5,13,6.4c5.1,3.6,7.6,8.6,7.8,14.8c0.3,7.8-2.7,13.9-9.4,18c-2.6,1.6-5.4,2.7-8.4,3.3c-11.1,2.3-21.6,0.9-31.3-5.3
	c-2.5-1.6-4.7-3.7-6.6-6.1c-0.4-0.5-0.5-0.8,0.1-1.3c3.8-3.2,7.7-6.4,11.4-9.7c0.6-0.5,0.8-0.2,1.2,0.1c3.3,2.9,7,5.3,11.3,6.5
	c3.3,0.9,6.7,0.8,10.1-0.1c0.7-0.2,1.3-0.5,1.9-0.9c2.6-1.7,2.8-5.1,0.5-7.1c-1.1-0.9-2.3-1.5-3.6-2.1c-4.4-2.1-9.1-3.5-13.6-5.4
	c-3.1-1.3-6.1-2.8-9-4.6c-5.9-3.7-8.6-9.1-8.5-16c0.1-7.1,3.5-12.1,9.5-15.6c5-2.8,10.4-3.8,16-3.9c9.8-0.1,18.2,3.3,25.1,10.3
	c0.3,0.3,0.5,0.6,0.8,0.9C554.6,52.7,554.7,52.8,554.8,53z"/>
<path class="st1" d="M226.6,113.8c-8.9-0.1-17-2.6-24-8.1c-1.6-1.2-2.9-2.7-4.2-4.3c-0.4-0.5-0.5-0.7,0.1-1.2
	c3.8-3.2,7.7-6.4,11.4-9.7c0.5-0.4,0.7-0.4,1.2,0c3.6,3.2,7.5,5.8,12.3,6.8c3.1,0.7,6.2,0.5,9.2-0.4c3-0.9,4.4-3.2,3.7-5.8
	c-0.4-1.5-1.5-2.4-2.8-3.1c-3.1-1.7-6.3-3-9.6-4.1c-5-1.8-9.9-3.7-14.4-6.5c-3.8-2.3-7.1-5.3-8.4-9.7c-2.9-10,0.1-19.1,11.5-23.8
	c11.3-4.7,27.8-3.5,38.6,8.3c0.6,0.6,0.6,0.9-0.1,1.4c-3.8,3-7.5,6.1-11.3,9.2c-0.5,0.4-0.8,0.5-1.4,0c-3-2.6-6.4-4.6-10.5-5.1
	c-2.3-0.3-4.5-0.2-6.7,0.4c-0.6,0.2-1.2,0.4-1.8,0.8c-2.1,1.3-2.3,3.7-0.6,5.5c1.3,1.3,2.8,2,4.4,2.7c3.2,1.4,6.6,2.1,9.9,3.2
	c4.4,1.5,8.6,3.4,12.5,6c6.6,4.4,9,10.7,8.3,18.3c-0.9,9.7-6.9,15-15.7,17.7C234.5,113.4,230.6,113.8,226.6,113.8z"/>
<path class="st1" d="M481.9,14.7c0,0.5,0,0.9,0,1.3c0,8.7,0,17.4,0,26.1c0,0.9,0.3,1.1,1.1,1.1c4.3,0,8.6,0,13,0c0.8,0,1,0.2,1,1
	c0,5.1,0,10.1,0,15.2c0,0.8-0.2,1-1,1c-4.4,0-8.7,0-13.1,0c-0.8,0-1,0.2-1,1c0,10.4,0,20.8,0,31.3c0,3,1.4,4.4,4.5,4.4
	c3.6-0.1,7-0.9,10.3-2.2c0.3-0.1,0.6-0.3,1.1-0.4c-0.4,3-0.8,5.9-1.2,8.9c-0.3,2.2-0.6,4.4-0.9,6.7c-0.1,0.8-0.4,1.1-1.1,1.4
	c-5.1,2.2-10.5,2.8-16,2.6c-2-0.1-4-0.3-5.9-1c-5.5-1.8-8.5-5.9-9.7-11.4c-0.5-2.2-0.7-4.4-0.7-6.6c0-11.1,0-22.3,0-33.4
	c0-1-0.3-1.2-1.2-1.2c-2.5,0.1-4.9,0-7.4,0c-0.7,0-0.9-0.2-0.9-0.9c0-5.1,0-10.3,0-15.4c0-0.7,0.2-0.9,0.9-0.9c2.5,0,5.1,0,7.6,0
	c0.8,0,1-0.1,1-1c0-5.7,0-11.5,0-17.2c0-0.8,0.2-1.1,0.9-1.4c5.9-2.8,11.8-5.6,17.6-8.4C481.2,14.9,481.5,14.8,481.9,14.7z"/>
<path class="st1" d="M419.5,49.1c2.8-3.9,6.1-6.8,10.8-7.4c6-0.8,11.3,0.9,15.7,5.2c0.3,0.3,0.4,0.6,0.3,0.9
	c-0.8,5.6-1.6,11.3-2.5,16.9c0,0.1-0.1,0.1-0.1,0.3c-0.4-0.3-0.8-0.6-1.3-0.9c-3.8-2.7-8.1-4.2-12.8-3.6c-5.6,0.7-8.7,3.8-9.7,9.3
	c-0.3,1.9-0.4,3.8-0.4,5.6c0,11.8,0,23.7,0,35.5c0,0.9-0.2,1.2-1.2,1.2c-5.8,0-11.6,0-17.5,0c-0.8,0-1.1-0.2-1.1-1.1
	c0-22.3,0-44.7,0-67c0-0.9,0.2-1.1,1.1-1.1c5.9,0,11.8,0,17.7,0c0.8,0,1,0.2,0.9,1C419.5,45.7,419.5,47.3,419.5,49.1z"/>
<path class="st0" d="M15.6,0c8.3,0,15.1,6.9,15,15.5c0,8.5-6.7,15.1-15.3,15.1C6.9,30.6,0,23.8,0,15.5C0,7.1,7.2,0,15.6,0z"/>
<path class="st0" d="M112.2,15.7c0,8.3-6.9,14.9-15.4,15c-8.6,0-15.2-6.6-15.2-15.2C81.5,6.9,88.3,0,96.6,0
	C105,0,112.2,7.2,112.2,15.7z"/>
<path class="st0" d="M15.5,81.3c8.7,0,15.2,6.6,15.2,15.3c0,8.5-6.7,15.3-15.1,15.3C7.2,111.8,0,104.6,0,96.3
	C0.1,88,6.9,81.3,15.5,81.3z"/>
<path class="st0" d="M96.6,111.9c-8.4,0-15.1-6.9-15.1-15.4c0.1-8.7,6.6-15.1,15.3-15.1c8.6,0,15.4,6.7,15.4,15.1
	C112.2,104.8,105,111.9,96.6,111.9z"/>
<path class="st1" d="M248.3,13.9c0-4.1,0-8.1,0-12.2c0-0.7,0.1-1,0.9-1c2.4,0.1,4.8,0,7.2,0.1c4.8,0.2,8.2,2.6,9.8,7.2
	c1.5,4.2,1.4,8.4-0.3,12.5c-1.7,4-4.8,6-9,6.4c-2.7,0.2-5.4,0.1-8,0.1c-0.7,0-0.6-0.4-0.6-0.8C248.3,22.1,248.3,18,248.3,13.9z
	 M250.9,13.9c0,3.3,0,6.6,0,10c0,0.6,0.1,0.9,0.8,0.8c1.5-0.1,3,0,4.5-0.1c3.3-0.2,5.7-1.6,7-4.7c1.7-4,1.7-8-0.1-12
	c-1.4-3.1-3.8-4.7-7.2-4.7c-1.4,0-2.8,0-4.2,0c-0.7,0-0.9,0.2-0.9,0.9C251,7.3,250.9,10.6,250.9,13.9z"/>
<path class="st1" d="M155,26.9c-0.1,0.1-0.1,0.1-0.2,0.1c-2.4,0.2-2.4,0.2-3.2-2.1c-0.5-1.3-1-2.6-1.4-3.9c-0.2-0.5-0.3-0.7-0.9-0.7
	c-3,0-6,0-9,0c-0.5,0-0.7,0.2-0.9,0.7c-0.6,1.7-1.2,3.4-1.7,5.2c-0.2,0.8-0.6,1-1.3,1c-0.5-0.1-1.1,0-1.6,0
	c-0.2-0.4,0.1-0.6,0.2-0.9c2.8-8.2,5.7-16.3,8.5-24.5c0.2-0.7,0.6-0.9,1.3-0.9c0.7,0,1.1,0,1.4,0.9C149.1,10.1,152.1,18.5,155,26.9z
	 M144.9,5.4c-0.1,0.1-0.2,0.1-0.2,0.2c-1.3,3.9-2.6,7.8-4,11.7c-0.2,0.6,0,0.7,0.6,0.7c2.4,0,4.7,0,7.1,0c0.7,0,0.8-0.1,0.6-0.8
	C147.6,13.3,146.2,9.3,144.9,5.4z"/>
<path class="st1" d="M227.8,27c-2.6,0.1-2.6,0.1-3.4-2.2c-0.5-1.3-1-2.6-1.4-3.9c-0.2-0.5-0.4-0.6-0.9-0.6c-3,0-5.9,0-8.9,0
	c-0.6,0-0.8,0.2-1,0.7c-0.5,1.7-1.2,3.4-1.7,5.1c-0.2,0.8-0.6,1.1-1.4,1c-0.5-0.1-1.1,0-1.7,0c1.1-3.2,2.2-6.3,3.3-9.4
	c1.8-5.3,3.7-10.6,5.5-15.9c0.3-0.7,0.6-1,1.4-0.9c0.7,0,1.1,0.1,1.4,0.9c2.9,8.3,5.8,16.6,8.7,25C227.7,26.7,227.7,26.8,227.8,27z
	 M217.6,5.4c-0.1,0.1-0.1,0.1-0.2,0.1c-1.3,3.9-2.7,7.9-4,11.8c-0.2,0.6,0.1,0.6,0.6,0.6c2.4,0,4.7,0,7.1,0c0.8,0,0.8-0.3,0.5-0.9
	C220.3,13.2,218.9,9.3,217.6,5.4z"/>
<path class="st1" d="M304.5,27.1c-0.8,0.2-1.3-0.2-1.5-1.2c-0.5-1.6-1.1-3.2-1.7-4.8c-0.2-0.5-0.4-0.8-1-0.8c-2.9,0-5.9,0-8.8,0
	c-0.6,0-0.8,0.2-1,0.7c-0.5,1.7-1.2,3.4-1.7,5.1c-0.2,0.8-0.6,1.1-1.5,1c-1.6-0.1-1.6,0-1.1-1.6c2.8-7.9,5.5-15.8,8.2-23.8
	c0.2-0.7,0.6-1,1.3-1c0.8,0,1.2,0.2,1.4,1c2.8,8,5.6,16,8.4,24C306.1,27.1,306.1,27.1,304.5,27.1z M295.9,5.3
	c-1.4,4.1-2.8,8.1-4.1,12.1c-0.2,0.5,0.1,0.6,0.5,0.6c2.4,0,4.9,0,7.3,0c0.6,0,0.6-0.2,0.5-0.7C298.6,13.3,297.3,9.3,295.9,5.3z"/>
<path class="st1" d="M181.4,22.7c1.4-4.5,2.8-8.7,4.1-13c0.8-2.6,1.7-5.2,2.5-7.8c0.3-0.9,0.6-1.2,1.5-1.1c1.7,0.1,1.7,0,1.1,1.7
	c-2.7,7.9-5.4,15.8-8.1,23.7c-0.2,0.7-0.5,1-1.2,0.9c-0.7,0-1.1-0.2-1.4-0.9c-2.8-8.1-5.5-16.2-8.4-24.3c-0.3-0.8-0.3-1.1,0.7-1.1
	c1.7,0.1,1.7,0,2.3,1.7C176.8,9.1,179.1,15.8,181.4,22.7z"/>
</svg>
